<?xml version="1.0" standalone="no"?>
<svg xmlns:xlink="http://www.w3.org/1999/xlink" id="wave" style="transform:rotate(0deg); transition: 0.3s" viewBox="0 0 1440 490" version="1.1" xmlns="http://www.w3.org/2000/svg"><defs><linearGradient id="sw-gradient-0" x1="0" x2="0" y1="1" y2="0"><stop stop-color="rgba(244, 249, 250, 1)" offset="0%"/><stop stop-color="rgba(249, 250, 251, 1)" offset="100%"/></linearGradient></defs><path style="transform:translate(0, 0px); opacity:1" fill="url(#sw-gradient-0)" d="M0,0L80,49C160,98,320,196,480,204.2C640,212,800,131,960,138.8C1120,147,1280,245,1440,269.5C1600,294,1760,245,1920,187.8C2080,131,2240,65,2400,106.2C2560,147,2720,294,2880,351.2C3040,408,3200,376,3360,343C3520,310,3680,278,3840,269.5C4000,261,4160,278,4320,277.7C4480,278,4640,261,4800,261.3C4960,261,5120,278,5280,285.8C5440,294,5600,294,5760,318.5C5920,343,6080,392,6240,367.5C6400,343,6560,245,6720,220.5C6880,196,7040,245,7200,236.8C7360,229,7520,163,7680,122.5C7840,82,8000,65,8160,49C8320,33,8480,16,8640,24.5C8800,33,8960,65,9120,89.8C9280,114,9440,131,9600,114.3C9760,98,9920,49,10080,98C10240,147,10400,294,10560,343C10720,392,10880,343,11040,285.8C11200,229,11360,163,11440,130.7L11520,98L11520,490L11440,490C11360,490,11200,490,11040,490C10880,490,10720,490,10560,490C10400,490,10240,490,10080,490C9920,490,9760,490,9600,490C9440,490,9280,490,9120,490C8960,490,8800,490,8640,490C8480,490,8320,490,8160,490C8000,490,7840,490,7680,490C7520,490,7360,490,7200,490C7040,490,6880,490,6720,490C6560,490,6400,490,6240,490C6080,490,5920,490,5760,490C5600,490,5440,490,5280,490C5120,490,4960,490,4800,490C4640,490,4480,490,4320,490C4160,490,4000,490,3840,490C3680,490,3520,490,3360,490C3200,490,3040,490,2880,490C2720,490,2560,490,2400,490C2240,490,2080,490,1920,490C1760,490,1600,490,1440,490C1280,490,1120,490,960,490C800,490,640,490,480,490C320,490,160,490,80,490L0,490Z"/><defs><linearGradient id="sw-gradient-1" x1="0" x2="0" y1="1" y2="0"><stop stop-color="rgba(243, 250, 255, 1)" offset="0%"/><stop stop-color="rgba(220.012, 217.492, 255, 1)" offset="100%"/></linearGradient></defs><path style="transform:translate(0, 50px); opacity:0.9" fill="url(#sw-gradient-1)" d="M0,392L80,343C160,294,320,196,480,171.5C640,147,800,196,960,196C1120,196,1280,147,1440,114.3C1600,82,1760,65,1920,73.5C2080,82,2240,114,2400,163.3C2560,212,2720,278,2880,269.5C3040,261,3200,180,3360,163.3C3520,147,3680,196,3840,179.7C4000,163,4160,82,4320,81.7C4480,82,4640,163,4800,163.3C4960,163,5120,82,5280,40.8C5440,0,5600,0,5760,32.7C5920,65,6080,131,6240,155.2C6400,180,6560,163,6720,130.7C6880,98,7040,49,7200,81.7C7360,114,7520,229,7680,285.8C7840,343,8000,343,8160,318.5C8320,294,8480,245,8640,196C8800,147,8960,98,9120,65.3C9280,33,9440,16,9600,49C9760,82,9920,163,10080,179.7C10240,196,10400,147,10560,138.8C10720,131,10880,163,11040,179.7C11200,196,11360,196,11440,196L11520,196L11520,490L11440,490C11360,490,11200,490,11040,490C10880,490,10720,490,10560,490C10400,490,10240,490,10080,490C9920,490,9760,490,9600,490C9440,490,9280,490,9120,490C8960,490,8800,490,8640,490C8480,490,8320,490,8160,490C8000,490,7840,490,7680,490C7520,490,7360,490,7200,490C7040,490,6880,490,6720,490C6560,490,6400,490,6240,490C6080,490,5920,490,5760,490C5600,490,5440,490,5280,490C5120,490,4960,490,4800,490C4640,490,4480,490,4320,490C4160,490,4000,490,3840,490C3680,490,3520,490,3360,490C3200,490,3040,490,2880,490C2720,490,2560,490,2400,490C2240,490,2080,490,1920,490C1760,490,1600,490,1440,490C1280,490,1120,490,960,490C800,490,640,490,480,490C320,490,160,490,80,490L0,490Z"/></svg>